<?xml version="1.0" standalone="no"?>
<svg viewBox="0 0 200 200" xmlns="http://www.w3.org/2000/svg">
  <path fill="#9EF0F0" d="M28.4,-40.7C39.5,-37,53.1,-33.7,59.7,-25.4C66.3,-17.2,65.9,-3.9,60.4,6.1C54.9,16,44.3,22.6,37.1,33.8C29.9,45,26.2,60.9,17.6,66.5C8.9,72.1,-4.8,67.4,-12.3,57.9C-19.8,48.3,-21.1,33.9,-26.5,24.7C-31.8,15.4,-41.2,11.3,-48.2,3.2C-55.2,-5,-59.9,-17.2,-54.5,-23.1C-49,-29,-33.5,-28.5,-22.7,-32.3C-12,-36.2,-6,-44.4,1.3,-46.5C8.6,-48.5,17.3,-44.4,28.4,-40.7Z" transform="translate(100 100)" />
</svg>
